<svg width="24" height="24" viewBox="0 0 24 24" fill="none" xmlns="http://www.w3.org/2000/svg">
<path d="M3.85996 13.71L18 22.18C18.3024 22.3546 18.6453 22.447 18.9945 22.448C19.3437 22.449 19.6871 22.3585 19.9905 22.1856C20.2939 22.0126 20.5467 21.7633 20.7238 21.4623C20.9009 21.1613 20.9961 20.8192 21 20.47L21 3.52998C20.9961 3.18078 20.9009 2.83867 20.7238 2.53769C20.5467 2.2367 20.2939 1.98734 19.9905 1.8144C19.6871 1.64147 19.3437 1.55099 18.9945 1.55197C18.6453 1.55294 18.3024 1.64535 18 1.81998L3.85996 10.29C3.56607 10.4682 3.32308 10.7193 3.15444 11.0188C2.98581 11.3183 2.89722 11.6562 2.89722 12C2.89722 12.3437 2.98581 12.6816 3.15444 12.9812C3.32308 13.2807 3.56607 13.5317 3.85996 13.71Z" fill="#E2E2E2"/>
</svg>
