<svg width="24" height="24" viewBox="0 0 24 24" fill="none" xmlns="http://www.w3.org/2000/svg">
<path d="M20.0886 10.2386L5.94865 1.76863C5.64622 1.594 5.30335 1.5016 4.95413 1.50062C4.60491 1.49964 4.26152 1.59012 3.95812 1.76306C3.65473 1.93599 3.4019 2.18535 3.2248 2.48634C3.04769 2.78732 2.95248 3.12943 2.94865 3.47863L2.94865 20.4186C2.95248 20.7678 3.04769 21.1099 3.2248 21.4109C3.4019 21.7119 3.65473 21.9613 3.95812 22.1342C4.26152 22.3071 4.60491 22.3976 4.95413 22.3966C5.30335 22.3957 5.64622 22.3033 5.94865 22.1286L20.0886 13.6586C20.3825 13.4804 20.6255 13.2294 20.7942 12.9298C20.9628 12.6303 21.0514 12.2924 21.0514 11.9486C21.0514 11.6049 20.9628 11.267 20.7942 10.9674C20.6255 10.6679 20.3825 10.4169 20.0886 10.2386Z" fill="#E2E2E2"/>
</svg>
